# xmcd
#
# Track frame offsets:
#	150
#	13937
#	28720
#	40790
#	55643
#	75512
#	90301
#	101415
#	115237
#	128924
#	141724
#	171893
#	188714
#	200771
#	220736
#	233540
#	251432
#	267361
#	280573
#	297888
#
# Disc length: 4155 seconds
#
# Revision: 0
# Processed by: cddbd v1.5.2PL0 Copyright (c) Steve Scherf et al.
# Submitted via: EZCDAudioConverter 2.1.7.1
#
DISCID=15103914
DTITLE=Keith Mansfield - All You Need Is...
DYEAR=1900
DGENRE=
TTITLE0=Everlasting Love
TTITLE1=Rainbow Valley
TTITLE2=Lovin' Things
TTITLE3=Soul Thing
TTITLE4=Love For Sale
TTITLE5=Am I The Same Girl (Soulful Strut)
TTITLE6=What Is This Thing Called Love
TTITLE7=Take Five
TTITLE8=Walk On By
TTITLE9=Moanin'
TTITLE10=The Serpent
TTITLE11=Boogaloo
TTITLE12=Soul Confusion
TTITLE13=Spinning Wheel
TTITLE14=All You Need Is Love
TTITLE15=A Whiter Shade Of Pale
TTITLE16=You've Lost That Lovin' Feeling
TTITLE17=Reach Out (And I'll Be There)
TTITLE18=Rainbow Valley
TTITLE19=Everlasting Love
EXTD=
EXTT0=
EXTT1=
EXTT2=
EXTT3=
EXTT4=
EXTT5=
EXTT6=
EXTT7=
EXTT8=
EXTT9=
EXTT10=
EXTT11=
EXTT12=
EXTT13=
EXTT14=
EXTT15=
EXTT16=
EXTT17=
EXTT18=
EXTT19=
PLAYORDER=
